HIERARCHY
ROOT pelvis
{
  OFFSET 0 100 0
  CHANNELS 6 Xposition Yposition Zposition Zrotation Xrotation Yrotation
  JOINT pelvis_right_femur
  {
    OFFSET -10.78128 -3.44521 -0.5502486
    CHANNELS 3 Zrotation Xrotation Yrotation
    JOINT right_femur_tibia
    {
      OFFSET -0.8047443 -44.0398 -0.1307829
      CHANNELS 3 Zrotation Xrotation Yrotation
      JOINT right_tibia_foot
      {
        OFFSET 3.006224 -47.83518 -5
        CHANNELS 3 Zrotation Xrotation Yrotation
        End Site
        {
          OFFSET 0 -5 15
        }
      }
    }
  }
  JOINT pelvis_left_femur
  {
    OFFSET 10.78128 -3.44521 -0.5502486
    CHANNELS 3 Zrotation Xrotation Yrotation
    JOINT left_femur_tibia
    {
      OFFSET 0.8047443 -44.0398 -0.1307829
      CHANNELS 3 Zrotation Xrotation Yrotation
      JOINT left_tibia_foot
      {
        OFFSET -4.370144 -48.10324 -4.275266
        CHANNELS 3 Zrotation Xrotation Yrotation
        End Site
        {
          OFFSET 0 -5 15
        }
      }
    }
  }
  JOINT pelvis_spine1
  {
    OFFSET 0 6.468898 -3.129235
    CHANNELS 3 Zrotation Xrotation Yrotation
    JOINT spine1
    {
      OFFSET 0 23.15396 4.99043
      CHANNELS 3 Zrotation Xrotation Yrotation
      JOINT spine2
      {
        OFFSET 0 20.79997 -5.064912
        CHANNELS 3 Zrotation Xrotation Yrotation
        JOINT neck
        {
          OFFSET 0 14.38658 9.616178
          CHANNELS 3 Zrotation Xrotation Yrotation
          End Site
          {
            OFFSET 0 20 0
          }
        }
      }
      JOINT right_manubrium
      {
        OFFSET -5.722621 16.35077 3.967754
        CHANNELS 3 Zrotation Xrotation Yrotation
        JOINT right_clavicle
        {
          OFFSET -13.16364 1.694482 -4.693211
          CHANNELS 3 Zrotation Xrotation Yrotation
          JOINT right_humerus
          {
            OFFSET -28.5034 -0.3100689 -2.792744
            CHANNELS 3 Zrotation Xrotation Yrotation
            JOINT right_radius
            {
              OFFSET -25.15693 0.02248979 -1.271978
              CHANNELS 3 Zrotation Xrotation Yrotation
              End Site
              {
                OFFSET -15 0 0
              }
            }
          }
        }
      }
      JOINT left_manubrium
      {
        OFFSET 5.722621 16.35077 3.967754
        CHANNELS 3 Zrotation Xrotation Yrotation
        JOINT left_clavicle
        {
          OFFSET 13.16364 1.694482 -4.693211
          CHANNELS 3 Zrotation Xrotation Yrotation
          JOINT left_humerus
          {
            OFFSET 29.39168 -1.063119 -2.237045
            CHANNELS 3 Zrotation Xrotation Yrotation
            JOINT left_radius
            {
              OFFSET 24.59957 -0.9528479 0.9047498
              CHANNELS 3 Zrotation Xrotation Yrotation
              End Site
              {
                OFFSET 15 -0 -0
              }
            }
          }
        }
      }
    }
  }
}
MOTION
Frames: 17
Frame Time: 0.0416666666667
-582.6493 109.9963 -303.9094 11.46286 -2.269133 84.64788 5.995918 17.95211 2.331952 -0 20.71457 -0 -12.49072 -16.65315 -5.130706 4.517897 -16.63329 -3.661808 -0 11.71688 -0 4.020309 0.4675238 16.23904 1.314241 -4.20683 7.579883 -0.1017316 16.48849 -5.857994 1.554943 19.75496 0.4289716 -0.4992874 -16.28199 3.865477 -2.716163 -31.53318 12.1439 89.55764 15.81264 -8.903304 -0 0 31.76911 -20.59087 16.34386 11.99849 1.839462 -21.98546 -7.995754 -95.0949 8.328726 39.27863 0 0 -1.035528 9.720826 17.2681 1.073266
-577.3265 109.9833 -304.3731 11.44 -2.383177 84.08444 5.995918 17.95211 2.331952 -0 20.71457 -0 -12.49072 -16.65315 -5.130706 4.517897 -16.63329 -3.661808 -0 11.71688 -0 4.020309 0.4675238 16.23904 1.314241 -4.20683 7.579883 -0.1017316 16.48849 -5.857994 1.554943 19.75496 0.4289716 -0.4992874 -16.28199 3.865477 -2.716163 -31.53318 12.1439 89.55764 15.81264 -8.903304 -0 0 31.76911 -20.59087 16.34386 11.99849 1.839462 -21.98546 -7.995754 -95.0949 8.328726 39.27863 0 0 -1.035528 9.720826 17.2681 1.073266
-571.9993 109.9703 -304.7834 11.416 -2.49699 83.5209 5.995918 17.95211 2.331952 -0 20.71457 -0 -12.49072 -16.65315 -5.130706 4.517897 -16.63329 -3.661808 -0 11.71688 -0 4.020309 0.4675238 16.23904 1.314241 -4.20683 7.579883 -0.1017316 16.48849 -5.857994 1.554943 19.75496 0.4289716 -0.4992874 -16.28199 3.865477 -2.716163 -31.53318 12.1439 89.55764 15.81264 -8.903304 -0 0 31.76911 -20.59087 16.34386 11.99849 1.839462 -21.98546 -7.995754 -95.0949 8.328726 39.27863 0 0 -1.035528 9.720826 17.2681 1.073266
-566.6684 109.9573 -305.1403 11.39089 -2.610563 82.95726 5.995918 17.95211 2.331952 -0 20.71457 -0 -12.49072 -16.65315 -5.130706 4.517897 -16.63329 -3.661808 -0 11.71688 -0 4.020309 0.4675238 16.23904 1.314241 -4.20683 7.579883 -0.1017316 16.48849 -5.857994 1.554943 19.75496 0.4289716 -0.4992874 -16.28199 3.865477 -2.716163 -31.53318 12.1439 89.55764 15.81264 -8.903304 -0 0 31.76911 -20.59087 16.34386 11.99849 1.839462 -21.98546 -7.995754 -95.0949 8.328726 39.27863 0 0 -1.035528 9.720826 17.2681 1.073266
-561.3341 109.9443 -305.4437 11.36465 -2.723883 82.39352 5.995918 17.95211 2.331952 -0 20.71457 -0 -12.49072 -16.65315 -5.130706 4.517897 -16.63329 -3.661808 -0 11.71688 -0 4.020309 0.4675238 16.23904 1.314241 -4.20683 7.579883 -0.1017316 16.48849 -5.857994 1.554943 19.75496 0.4289716 -0.4992874 -16.28199 3.865477 -2.716163 -31.53318 12.1439 89.55764 15.81264 -8.903304 -0 0 31.76911 -20.59087 16.34386 11.99849 1.839462 -21.98546 -7.995754 -95.0949 8.328726 39.27863 0 0 -1.035528 9.720826 17.2681 1.073266
-555.997 109.9313 -305.6936 11.3373 -2.836939 81.82968 5.995918 17.95211 2.331952 -0 20.71457 -0 -12.49072 -16.65315 -5.130706 4.517897 -16.63329 -3.661808 -0 11.71688 -0 4.020309 0.4675238 16.23904 1.314241 -4.20683 7.579883 -0.1017316 16.48849 -5.857994 1.554943 19.75496 0.4289716 -0.4992874 -16.28199 3.865477 -2.716163 -31.53318 12.1439 89.55764 15.81264 -8.903304 -0 0 31.76911 -20.59087 16.34386 11.99849 1.839462 -21.98546 -7.995754 -95.0949 8.328726 39.27863 0 0 -1.035528 9.720826 17.2681 1.073266
-550.6577 109.9183 -305.89 11.30884 -2.949721 81.26573 5.995918 17.95211 2.331952 -0 20.71457 -0 -12.49072 -16.65315 -5.130706 4.517897 -16.63329 -3.661808 -0 11.71688 -0 4.020309 0.4675238 16.23904 1.314241 -4.20683 7.579883 -0.1017316 16.48849 -5.857994 1.554943 19.75496 0.4289716 -0.4992874 -16.28199 3.865477 -2.716163 -31.53318 12.1439 89.55764 15.81264 -8.903304 -0 0 31.76911 -20.59087 16.34386 11.99849 1.839462 -21.98546 -7.995754 -95.0949 8.328726 39.27863 0 0 -1.035528 9.720826 17.2681 1.073266
-545.3167 109.9053 -306.0329 11.27926 -3.062218 80.70166 5.995918 17.95211 2.331952 -0 20.71457 -0 -12.49072 -16.65315 -5.130706 4.517897 -16.63329 -3.661808 -0 11.71688 -0 4.020309 0.4675238 16.23904 1.314241 -4.20683 7.579883 -0.1017316 16.48849 -5.857994 1.554943 19.75496 0.4289716 -0.4992874 -16.28199 3.865477 -2.716163 -31.53318 12.1439 89.55764 15.81264 -8.903304 -0 0 31.76911 -20.59087 16.34386 11.99849 1.839462 -21.98546 -7.995754 -95.0949 8.328726 39.27863 0 0 -1.035528 9.720826 17.2681 1.073266
-539.9745 109.8923 -306.1222 11.24857 -3.174419 80.13747 5.995918 17.95211 2.331952 -0 20.71457 -0 -12.49072 -16.65315 -5.130706 4.517897 -16.63329 -3.661808 -0 11.71688 -0 4.020309 0.4675238 16.23904 1.314241 -4.20683 7.579883 -0.1017316 16.48849 -5.857994 1.554943 19.75496 0.4289716 -0.4992874 -16.28199 3.865477 -2.716163 -31.53318 12.1439 89.55764 15.81264 -8.903304 -0 0 31.76911 -20.59087 16.34386 11.99849 1.839462 -21.98546 -7.995754 -95.0949 8.328726 39.27863 0 0 -1.035528 9.720826 17.2681 1.073266
-534.6317 109.8793 -306.158 11.21677 -3.286312 79.57316 5.995918 17.95211 2.331952 -0 20.71457 -0 -12.49072 -16.65315 -5.130706 4.517897 -16.63329 -3.661808 -0 11.71688 -0 4.020309 0.4675238 16.23904 1.314241 -4.20683 7.579883 -0.1017316 16.48849 -5.857994 1.554943 19.75496 0.4289716 -0.4992874 -16.28199 3.865477 -2.716163 -31.53318 12.1439 89.55764 15.81264 -8.903304 -0 0 31.76911 -20.59087 16.34386 11.99849 1.839462 -21.98546 -7.995754 -95.0949 8.328726 39.27863 0 0 -1.035528 9.720826 17.2681 1.073266
-529.2888 109.8663 -306.1402 11.18386 -3.397888 79.00873 5.995918 17.95211 2.331952 -0 20.71457 -0 -12.49072 -16.65315 -5.130706 4.517897 -16.63329 -3.661808 -0 11.71688 -0 4.020309 0.4675238 16.23904 1.314241 -4.20683 7.579883 -0.1017316 16.48849 -5.857994 1.554943 19.75496 0.4289716 -0.4992874 -16.28199 3.865477 -2.716163 -31.53318 12.1439 89.55764 15.81264 -8.903304 -0 0 31.76911 -20.59087 16.34386 11.99849 1.839462 -21.98546 -7.995754 -95.0949 8.328726 39.27863 0 0 -1.035528 9.720826 17.2681 1.073266
-523.9464 109.8533 -306.0688 11.14985 -3.509134 78.44416 5.995918 17.95211 2.331952 -0 20.71457 -0 -12.49072 -16.65315 -5.130706 4.517897 -16.63329 -3.661808 -0 11.71688 -0 4.020309 0.4675238 16.23904 1.314241 -4.20683 7.579883 -0.1017316 16.48849 -5.857994 1.554943 19.75496 0.4289716 -0.4992874 -16.28199 3.865477 -2.716163 -31.53318 12.1439 89.55764 15.81264 -8.903304 -0 0 31.76911 -20.59087 16.34386 11.99849 1.839462 -21.98546 -7.995754 -95.0949 8.328726 39.27863 0 0 -1.035528 9.720826 17.2681 1.073266
-518.6049 109.8403 -305.9439 11.11474 -3.62004 77.87946 5.995918 17.95211 2.331952 -0 20.71457 -0 -12.49072 -16.65315 -5.130706 4.517897 -16.63329 -3.661808 -0 11.71688 -0 4.020309 0.4675238 16.23904 1.314241 -4.20683 7.579883 -0.1017316 16.48849 -5.857994 1.554943 19.75496 0.4289716 -0.4992874 -16.28199 3.865477 -2.716163 -31.53318 12.1439 89.55764 15.81264 -8.903304 -0 0 31.76911 -20.59087 16.34386 11.99849 1.839462 -21.98546 -7.995754 -95.0949 8.328726 39.27863 0 0 -1.035528 9.720826 17.2681 1.073266
-513.265 109.8273 -305.7654 11.07853 -3.730596 77.31462 5.995918 17.95211 2.331952 -0 20.71457 -0 -12.49072 -16.65315 -5.130706 4.517897 -16.63329 -3.661808 -0 11.71688 -0 4.020309 0.4675238 16.23904 1.314241 -4.20683 7.579883 -0.1017316 16.48849 -5.857994 1.554943 19.75496 0.4289716 -0.4992874 -16.28199 3.865477 -2.716163 -31.53318 12.1439 89.55764 15.81264 -8.903304 -0 0 31.76911 -20.59087 16.34386 11.99849 1.839462 -21.98546 -7.995754 -95.0949 8.328726 39.27863 0 0 -1.035528 9.720826 17.2681 1.073266
-507.9271 109.8143 -305.5334 11.04123 -3.84079 76.74964 5.995918 17.95211 2.331952 -0 20.71457 -0 -12.49072 -16.65315 -5.130706 4.517897 -16.63329 -3.661808 -0 11.71688 -0 4.020309 0.4675238 16.23904 1.314241 -4.20683 7.579883 -0.1017316 16.48849 -5.857994 1.554943 19.75496 0.4289716 -0.4992874 -16.28199 3.865477 -2.716163 -31.53318 12.1439 89.55764 15.81264 -8.903304 -0 0 31.76911 -20.59087 16.34386 11.99849 1.839462 -21.98546 -7.995754 -95.0949 8.328726 39.27863 0 0 -1.035528 9.720826 17.2681 1.073266
-502.5918 109.8013 -305.2479 11.00284 -3.950611 76.18452 5.995918 17.95211 2.331952 -0 20.71457 -0 -12.49072 -16.65315 -5.130706 4.517897 -16.63329 -3.661808 -0 11.71688 -0 4.020309 0.4675238 16.23904 1.314241 -4.20683 7.579883 -0.1017316 16.48849 -5.857994 1.554943 19.75496 0.4289716 -0.4992874 -16.28199 3.865477 -2.716163 -31.53318 12.1439 89.55764 15.81264 -8.903304 -0 0 31.76911 -20.59087 16.34386 11.99849 1.839462 -21.98546 -7.995754 -95.0949 8.328726 39.27863 0 0 -1.035528 9.720826 17.2681 1.073266
-497.2596 109.7883 -304.9089 10.96335 -4.060049 75.61924 5.995918 17.95211 2.331952 -0 20.71457 -0 -12.49072 -16.65315 -5.130706 4.517897 -16.63329 -3.661808 -0 11.71688 -0 4.020309 0.4675238 16.23904 1.314241 -4.20683 7.579883 -0.1017316 16.48849 -5.857994 1.554943 19.75496 0.4289716 -0.4992874 -16.28199 3.865477 -2.716163 -31.53318 12.1439 89.55764 15.81264 -8.903304 -0 0 31.76911 -20.59087 16.34386 11.99849 1.839462 -21.98546 -7.995754 -95.0949 8.328726 39.27863 0 0 -1.035528 9.720826 17.2681 1.073266
